M48
;Layer_Color=9474304
;FILE_FORMAT=2:5
INCH,LZ
;TYPE=PLATED
T01F00S00C0.00787
;TYPE=NON_PLATED
T03F00S00C0.03900
%
T01
X0111417Y0044882
Y005748
X011811Y0053347
X0114173Y0065945
Y0068898
Y007185
Y0074803
X0114173Y0077756
X0117717Y0080709
X0124016
X0139764Y0076772
X0136732Y0047244
X0131732Y0035433
X0105315Y0067913
Y007185
X0106299Y0077756
X0096457Y0074803
Y0069882
X009252Y0063976
T03
X0121732Y0037339
Y0045339
X0141732Y0041339
M30
