G04*
G04 #@! TF.GenerationSoftware,Altium Limited,Altium Designer,25.8.1 (18)*
G04*
G04 Layer_Physical_Order=1*
G04 Layer_Color=255*
%FSLAX44Y44*%
%MOMM*%
G71*
G04*
G04 #@! TF.SameCoordinates,116CCF62-5798-44C4-8A89-1D291C0AF353*
G04*
G04*
G04 #@! TF.FilePolarity,Positive*
G04*
G01*
G75*
G04:AMPARAMS|DCode=12|XSize=1.3mm|YSize=0.8mm|CornerRadius=0mm|HoleSize=0mm|Usage=FLASHONLY|Rotation=30.000|XOffset=0mm|YOffset=0mm|HoleType=Round|Shape=Rectangle|*
%AMROTATEDRECTD12*
4,1,4,-0.3629,-0.6714,-0.7629,0.0214,0.3629,0.6714,0.7629,-0.0214,-0.3629,-0.6714,0.0*
%
%ADD12ROTATEDRECTD12*%

%ADD16C,0.4000*%
%ADD17C,0.9906*%
%ADD18O,1.0000X1.8000*%
%ADD19C,0.4000*%
D12*
X336725Y205672D02*
D03*
X343275Y194328D02*
D03*
D16*
X320000Y190000D02*
X335672Y205672D01*
X322500Y175000D02*
X341828Y194328D01*
X290000Y175000D02*
X322500D01*
X290000Y190000D02*
X320000D01*
D17*
X360000Y105000D02*
D03*
X309200Y115160D02*
D03*
Y94840D02*
D03*
D18*
X385000Y150000D02*
D03*
X360000D02*
D03*
X335000D02*
D03*
D19*
X299000Y205000D02*
D03*
X270000Y197500D02*
D03*
X245000Y190000D02*
D03*
Y177500D02*
D03*
X267500Y172500D02*
D03*
Y182500D02*
D03*
X290000Y167500D02*
D03*
Y182500D02*
D03*
Y175000D02*
D03*
Y190000D02*
D03*
X290000Y197500D02*
D03*
X300000Y135500D02*
D03*
X283000Y114000D02*
D03*
Y146000D02*
D03*
X334600Y90000D02*
D03*
X347300Y120000D02*
D03*
X235000Y162500D02*
D03*
X315000Y205000D02*
D03*
X355000Y195000D02*
D03*
M02*
