G04*
G04 #@! TF.GenerationSoftware,Altium Limited,Altium Designer,25.8.1 (18)*
G04*
G04 Layer_Physical_Order=4*
G04 Layer_Color=16711680*
%FSLAX44Y44*%
%MOMM*%
G71*
G04*
G04 #@! TF.SameCoordinates,116CCF62-5798-44C4-8A89-1D291C0AF353*
G04*
G04*
G04 #@! TF.FilePolarity,Positive*
G04*
G01*
G75*
%ADD17C,0.9906*%
%ADD18O,1.0000X1.8000*%
%ADD19C,0.4000*%
%ADD24C,0.2500*%
%ADD25R,0.4000X0.7000*%
%ADD26C,0.7874*%
%ADD27R,1.2000X1.2000*%
%ADD28R,0.8000X1.3000*%
%ADD29R,0.7300X0.3000*%
%ADD30R,0.3000X0.7300*%
%ADD31R,0.7000X0.4000*%
%ADD32C,0.1500*%
%ADD33C,0.5000*%
%ADD34C,0.0500*%
D17*
X360000Y105000D02*
D03*
X309200Y115160D02*
D03*
Y94840D02*
D03*
D18*
X385000Y150000D02*
D03*
X360000D02*
D03*
X335000D02*
D03*
D19*
X299000Y205000D02*
D03*
X270000Y197500D02*
D03*
X245000Y190000D02*
D03*
Y177500D02*
D03*
X267500Y172500D02*
D03*
Y182500D02*
D03*
X290000Y167500D02*
D03*
Y182500D02*
D03*
Y175000D02*
D03*
Y190000D02*
D03*
X290000Y197500D02*
D03*
X300000Y135500D02*
D03*
X283000Y114000D02*
D03*
Y146000D02*
D03*
X334600Y90000D02*
D03*
X347300Y120000D02*
D03*
X235000Y162500D02*
D03*
X315000Y205000D02*
D03*
X355000Y195000D02*
D03*
D24*
X280000Y182500D02*
D03*
X285000D02*
D03*
Y187500D02*
D03*
X280000D02*
D03*
X275000D02*
D03*
Y182500D02*
D03*
Y177500D02*
D03*
X280000D02*
D03*
X285000D02*
D03*
D25*
X250500Y190000D02*
D03*
X259500D02*
D03*
X250500Y177500D02*
D03*
X259500D02*
D03*
X240500Y162500D02*
D03*
X249500D02*
D03*
X314500Y155000D02*
D03*
X305500D02*
D03*
X284500Y197500D02*
D03*
X275500D02*
D03*
X284500Y167500D02*
D03*
X275500D02*
D03*
X314500Y142500D02*
D03*
X305500D02*
D03*
D26*
X347300Y98650D02*
D03*
Y111350D02*
D03*
X334600Y98650D02*
D03*
Y111350D02*
D03*
X321900Y98650D02*
D03*
Y111350D02*
D03*
D27*
X359000Y175000D02*
D03*
X331000D02*
D03*
D28*
X346000Y195000D02*
D03*
X330000D02*
D03*
X299000D02*
D03*
X315000D02*
D03*
X299000Y175000D02*
D03*
X315000D02*
D03*
D29*
X279650Y120000D02*
D03*
Y125000D02*
D03*
Y130000D02*
D03*
Y135000D02*
D03*
Y140000D02*
D03*
X240350D02*
D03*
Y135000D02*
D03*
Y130000D02*
D03*
Y125000D02*
D03*
Y120000D02*
D03*
D30*
X270000Y149650D02*
D03*
X265000D02*
D03*
X260000D02*
D03*
X255000D02*
D03*
X250000D02*
D03*
Y110350D02*
D03*
X255000D02*
D03*
X260000D02*
D03*
X265000D02*
D03*
X270000D02*
D03*
D31*
X292500Y144500D02*
D03*
Y135500D02*
D03*
Y124500D02*
D03*
Y115500D02*
D03*
D32*
X255000Y149650D02*
X255000Y149650D01*
X255000Y149650D02*
Y185500D01*
X250000Y149650D02*
Y162000D01*
X292500Y124500D02*
X333000D01*
X341000Y116500D01*
X265000Y102500D02*
X282500Y85000D01*
X315000D01*
X275000Y110000D02*
X280000Y105000D01*
X328250D01*
X279650Y142650D02*
X283000Y146000D01*
X279650Y140000D02*
Y142650D01*
X255000Y185500D02*
X259500Y190000D01*
Y177500D02*
X260000Y177000D01*
Y149650D02*
Y177000D01*
X270000Y197500D02*
X270000Y197500D01*
X275500D01*
X270000Y177500D02*
X272500Y180000D01*
X259500Y177500D02*
X270000D01*
X259500Y190000D02*
X272500D01*
X245000Y177500D02*
X250500D01*
X245000Y190000D02*
X250500D01*
X267500Y172500D02*
X267978Y172978D01*
X270478D01*
X275000Y177500D01*
X267500Y182500D02*
X275000D01*
X272500Y190000D02*
X275000Y187500D01*
X284500Y167500D02*
X290000D01*
X275500D02*
Y170500D01*
X280000Y175000D01*
Y177500D01*
X285000Y182500D02*
X290000D01*
X290000Y197500D02*
X290000Y197500D01*
X284500Y197500D02*
X290000D01*
X275500Y194500D02*
Y197500D01*
Y194500D02*
X280000Y190000D01*
Y187500D02*
Y190000D01*
X287500Y190000D02*
X290000D01*
X285000Y187500D02*
X287500Y190000D01*
Y175000D02*
X290000D01*
X285000Y177500D02*
X287500Y175000D01*
X277500Y180000D02*
X277500D01*
X280000Y182500D01*
X283000Y146000D02*
X286000D01*
X287500Y144500D01*
X292500D01*
X283000Y114000D02*
X286000D01*
X287500Y115500D01*
X292500D01*
Y135500D02*
X300000D01*
X340000Y162500D02*
X352500Y150000D01*
X360000D01*
X327500Y162500D02*
X340000D01*
X341000Y104950D02*
Y116500D01*
X265000Y102500D02*
Y110350D01*
X347300Y111350D02*
Y120000D01*
X334600Y90000D02*
Y98650D01*
X341000Y104950D02*
X347300Y98650D01*
X315000Y85000D02*
X321900Y91900D01*
Y98650D01*
X270000Y110350D02*
X270350Y110000D01*
X275000D01*
X328250Y105000D02*
X334600Y111350D01*
X235000Y162500D02*
X240500D01*
X290500Y124500D02*
X292500D01*
X285000Y130000D02*
X290500Y124500D01*
X279650Y130000D02*
X285000D01*
X279650Y135000D02*
X292000D01*
X320000Y155000D02*
X327500Y162500D01*
X281000Y151000D02*
X298500D01*
X305500Y144000D01*
X272000Y142000D02*
X281000Y151000D01*
X265000Y144000D02*
Y149650D01*
Y144000D02*
X267000Y142000D01*
X272000D01*
X280000Y155000D02*
X305500D01*
X274650Y149650D02*
X280000Y155000D01*
X270000Y149650D02*
X274650D01*
X314500Y155000D02*
X320000D01*
X314500Y142500D02*
X320000D01*
X327500Y150000D02*
X335000D01*
X320000Y142500D02*
X327500Y150000D01*
D33*
X346000Y195000D02*
X355000D01*
X315000D02*
Y205000D01*
X299000Y195000D02*
Y205000D01*
Y175000D02*
Y195000D01*
X315000D02*
X330000D01*
X315000Y175000D02*
Y195000D01*
Y175000D02*
X331000D01*
X360000Y150000D02*
Y174000D01*
D34*
X272500Y180000D02*
X277500D01*
M02*
