G04*
G04 #@! TF.GenerationSoftware,Altium Limited,Altium Designer,25.8.1 (18)*
G04*
G04 Layer_Color=16711935*
%FSLAX44Y44*%
%MOMM*%
G71*
G04*
G04 #@! TF.SameCoordinates,116CCF62-5798-44C4-8A89-1D291C0AF353*
G04*
G04*
G04 #@! TF.FilePolarity,Negative*
G04*
G01*
G75*
%ADD14C,1.1938*%
%ADD15O,1.2032X2.0032*%
%ADD35C,0.4532*%
%ADD36R,0.6032X0.9032*%
%ADD37C,0.9906*%
%ADD38R,1.4032X1.4032*%
%ADD39R,1.0032X1.5032*%
%ADD40R,0.9332X0.5032*%
%ADD41R,0.5032X0.9332*%
%ADD42R,0.9032X0.6032*%
D14*
X360000Y105000D02*
D03*
X309200Y115160D02*
D03*
Y94840D02*
D03*
D15*
X385000Y150000D02*
D03*
X360000D02*
D03*
X335000D02*
D03*
D35*
X280000Y182500D02*
D03*
X285000D02*
D03*
Y187500D02*
D03*
X280000D02*
D03*
X275000D02*
D03*
Y182500D02*
D03*
Y177500D02*
D03*
X280000D02*
D03*
X285000D02*
D03*
D36*
X250500Y190000D02*
D03*
X259500D02*
D03*
X250500Y177500D02*
D03*
X259500D02*
D03*
X240500Y162500D02*
D03*
X249500D02*
D03*
X314500Y155000D02*
D03*
X305500D02*
D03*
X284500Y197500D02*
D03*
X275500D02*
D03*
X284500Y167500D02*
D03*
X275500D02*
D03*
X314500Y142500D02*
D03*
X305500D02*
D03*
D37*
X347300Y98650D02*
D03*
Y111350D02*
D03*
X334600Y98650D02*
D03*
Y111350D02*
D03*
X321900Y98650D02*
D03*
Y111350D02*
D03*
D38*
X359000Y175000D02*
D03*
X331000D02*
D03*
D39*
X346000Y195000D02*
D03*
X330000D02*
D03*
X299000D02*
D03*
X315000D02*
D03*
X299000Y175000D02*
D03*
X315000D02*
D03*
D40*
X279650Y120000D02*
D03*
Y125000D02*
D03*
Y130000D02*
D03*
Y135000D02*
D03*
Y140000D02*
D03*
X240350D02*
D03*
Y135000D02*
D03*
Y130000D02*
D03*
Y125000D02*
D03*
Y120000D02*
D03*
D41*
X270000Y149650D02*
D03*
X265000D02*
D03*
X260000D02*
D03*
X255000D02*
D03*
X250000D02*
D03*
Y110350D02*
D03*
X255000D02*
D03*
X260000D02*
D03*
X265000D02*
D03*
X270000D02*
D03*
D42*
X292500Y144500D02*
D03*
Y135500D02*
D03*
Y124500D02*
D03*
Y115500D02*
D03*
M02*
