G04*
G04 #@! TF.GenerationSoftware,Altium Limited,Altium Designer,25.8.1 (18)*
G04*
G04 Layer_Color=128*
%FSLAX44Y44*%
%MOMM*%
G71*
G04*
G04 #@! TF.SameCoordinates,116CCF62-5798-44C4-8A89-1D291C0AF353*
G04*
G04*
G04 #@! TF.FilePolarity,Positive*
G04*
G01*
G75*
%ADD24C,0.2500*%
%ADD25R,0.4000X0.7000*%
%ADD27R,1.2000X1.2000*%
%ADD28R,0.8000X1.3000*%
%ADD29R,0.7300X0.3000*%
%ADD30R,0.3000X0.7300*%
%ADD31R,0.7000X0.4000*%
D24*
X280000Y182500D02*
D03*
X285000D02*
D03*
Y187500D02*
D03*
X280000D02*
D03*
X275000D02*
D03*
Y182500D02*
D03*
Y177500D02*
D03*
X280000D02*
D03*
X285000D02*
D03*
D25*
X250500Y190000D02*
D03*
X259500D02*
D03*
X250500Y177500D02*
D03*
X259500D02*
D03*
X240500Y162500D02*
D03*
X249500D02*
D03*
X314500Y155000D02*
D03*
X305500D02*
D03*
X284500Y197500D02*
D03*
X275500D02*
D03*
X284500Y167500D02*
D03*
X275500D02*
D03*
X314500Y142500D02*
D03*
X305500D02*
D03*
D27*
X359000Y175000D02*
D03*
X331000D02*
D03*
D28*
X346000Y195000D02*
D03*
X330000D02*
D03*
X299000D02*
D03*
X315000D02*
D03*
X299000Y175000D02*
D03*
X315000D02*
D03*
D29*
X279650Y120000D02*
D03*
Y125000D02*
D03*
Y130000D02*
D03*
Y135000D02*
D03*
Y140000D02*
D03*
X240350D02*
D03*
Y135000D02*
D03*
Y130000D02*
D03*
Y125000D02*
D03*
Y120000D02*
D03*
D30*
X270000Y149650D02*
D03*
X265000D02*
D03*
X260000D02*
D03*
X255000D02*
D03*
X250000D02*
D03*
Y110350D02*
D03*
X255000D02*
D03*
X260000D02*
D03*
X265000D02*
D03*
X270000D02*
D03*
D31*
X292500Y144500D02*
D03*
Y135500D02*
D03*
Y124500D02*
D03*
Y115500D02*
D03*
M02*
